<mxfile host="app.diagrams.net" modified="2023-04-24T14:02:21.611Z" agent="Mozilla/5.0 (Windows NT 10.0; Win64; x64) AppleWebKit/537.36 (KHTML, like Gecko) Chrome/112.0.0.0 Safari/537.36" etag="7eJA7p_EJNZzNyxzFuWR" version="21.2.1" type="device">
  <diagram id="C5RBs43oDa-KdzZeNtuy" name="Page-1">
    <mxGraphModel dx="2664" dy="2073" grid="1" gridSize="10" guides="1" tooltips="1" connect="1" arrows="1" fold="1" page="1" pageScale="1" pageWidth="827" pageHeight="1169" math="0" shadow="0">
      <root>
        <mxCell id="WIyWlLk6GJQsqaUBKTNV-0" />
        <mxCell id="WIyWlLk6GJQsqaUBKTNV-1" parent="WIyWlLk6GJQsqaUBKTNV-0" />
        <mxCell id="2JS95DW83qILI5_Ju0iu-93" value="" style="endArrow=none;html=1;rounded=0;strokeColor=#7EA6E0;strokeWidth=4;fontSize=20;" parent="WIyWlLk6GJQsqaUBKTNV-1" edge="1">
          <mxGeometry width="50" height="50" relative="1" as="geometry">
            <mxPoint x="610" y="-880" as="sourcePoint" />
            <mxPoint x="1420" y="-460" as="targetPoint" />
            <Array as="points">
              <mxPoint x="1050" y="-879" />
              <mxPoint x="1050" y="-460" />
            </Array>
          </mxGeometry>
        </mxCell>
        <mxCell id="zkfFHV4jXpPFQw0GAbJ--0" value="User / Χρήστης" style="swimlane;fontStyle=1;align=center;verticalAlign=top;childLayout=stackLayout;horizontal=1;startSize=30;horizontalStack=0;resizeParent=1;resizeLast=0;collapsible=1;marginBottom=0;rounded=0;shadow=0;strokeWidth=1;fontSize=20;" parent="WIyWlLk6GJQsqaUBKTNV-1" vertex="1">
          <mxGeometry x="750" y="-830" width="160" height="204" as="geometry">
            <mxRectangle x="230" y="140" width="160" height="26" as="alternateBounds" />
          </mxGeometry>
        </mxCell>
        <mxCell id="zkfFHV4jXpPFQw0GAbJ--1" value="id&#xa;username&#xa;email&#xa;password&#xa;type" style="text;align=left;verticalAlign=top;spacingLeft=4;spacingRight=4;overflow=hidden;rotatable=0;points=[[0,0.5],[1,0.5]];portConstraint=eastwest;fontSize=20;" parent="zkfFHV4jXpPFQw0GAbJ--0" vertex="1">
          <mxGeometry y="30" width="160" height="170" as="geometry" />
        </mxCell>
        <mxCell id="2JS95DW83qILI5_Ju0iu-21" style="edgeStyle=orthogonalEdgeStyle;rounded=0;orthogonalLoop=1;jettySize=auto;html=1;exitX=0.5;exitY=0;exitDx=0;exitDy=0;entryX=0.5;entryY=0.988;entryDx=0;entryDy=0;entryPerimeter=0;endArrow=block;endFill=0;strokeWidth=2;fontSize=20;" parent="WIyWlLk6GJQsqaUBKTNV-1" source="2JS95DW83qILI5_Ju0iu-8" target="zkfFHV4jXpPFQw0GAbJ--1" edge="1">
          <mxGeometry relative="1" as="geometry">
            <Array as="points">
              <mxPoint x="205" y="-600" />
              <mxPoint x="830" y="-600" />
            </Array>
          </mxGeometry>
        </mxCell>
        <mxCell id="2JS95DW83qILI5_Ju0iu-8" value="&lt;b style=&quot;font-size: 20px;&quot;&gt;Simple User / Απλός Χρήστης&lt;/b&gt;" style="swimlane;fontStyle=0;childLayout=stackLayout;horizontal=1;startSize=50;horizontalStack=0;resizeParent=1;resizeParentMax=0;resizeLast=0;collapsible=1;marginBottom=0;whiteSpace=wrap;html=1;verticalAlign=middle;fontSize=20;" parent="WIyWlLk6GJQsqaUBKTNV-1" vertex="1">
          <mxGeometry x="110" y="-550" width="190" height="180" as="geometry" />
        </mxCell>
        <mxCell id="2JS95DW83qILI5_Ju0iu-9" value="id&lt;br style=&quot;font-size: 20px;&quot;&gt;whislist&lt;br style=&quot;font-size: 20px;&quot;&gt;events_list&lt;br style=&quot;font-size: 20px;&quot;&gt;memories_list&lt;br&gt;score" style="text;strokeColor=none;fillColor=none;align=left;verticalAlign=top;spacingLeft=4;spacingRight=4;overflow=hidden;points=[[0,0.5],[1,0.5]];portConstraint=eastwest;rotatable=0;whiteSpace=wrap;html=1;fontSize=20;" parent="2JS95DW83qILI5_Ju0iu-8" vertex="1">
          <mxGeometry y="50" width="190" height="130" as="geometry" />
        </mxCell>
        <mxCell id="2JS95DW83qILI5_Ju0iu-12" value="&lt;b style=&quot;font-size: 20px;&quot;&gt;Ξεναγός / Tour Guide&lt;/b&gt;" style="swimlane;fontStyle=0;childLayout=stackLayout;horizontal=1;startSize=60;horizontalStack=0;resizeParent=1;resizeParentMax=0;resizeLast=0;collapsible=1;marginBottom=0;whiteSpace=wrap;html=1;verticalAlign=middle;fontSize=20;" parent="WIyWlLk6GJQsqaUBKTNV-1" vertex="1">
          <mxGeometry x="735" y="-570" width="190" height="170" as="geometry" />
        </mxCell>
        <mxCell id="2JS95DW83qILI5_Ju0iu-13" value="id&lt;br style=&quot;font-size: 20px;&quot;&gt;bank_account&lt;br style=&quot;font-size: 20px;&quot;&gt;tours_list&lt;br&gt;events_list" style="text;strokeColor=none;fillColor=none;align=left;verticalAlign=top;spacingLeft=4;spacingRight=4;overflow=hidden;points=[[0,0.5],[1,0.5]];portConstraint=eastwest;rotatable=0;whiteSpace=wrap;html=1;fontSize=20;" parent="2JS95DW83qILI5_Ju0iu-12" vertex="1">
          <mxGeometry y="60" width="190" height="110" as="geometry" />
        </mxCell>
        <mxCell id="2JS95DW83qILI5_Ju0iu-22" style="edgeStyle=orthogonalEdgeStyle;rounded=0;orthogonalLoop=1;jettySize=auto;html=1;exitX=0.5;exitY=0;exitDx=0;exitDy=0;entryX=0.494;entryY=0.988;entryDx=0;entryDy=0;entryPerimeter=0;endArrow=block;endFill=0;strokeWidth=2;strokeColor=#000000;fontSize=20;" parent="WIyWlLk6GJQsqaUBKTNV-1" source="2JS95DW83qILI5_Ju0iu-14" target="zkfFHV4jXpPFQw0GAbJ--1" edge="1">
          <mxGeometry relative="1" as="geometry">
            <Array as="points">
              <mxPoint x="1515" y="-600" />
              <mxPoint x="829" y="-600" />
            </Array>
          </mxGeometry>
        </mxCell>
        <mxCell id="2JS95DW83qILI5_Ju0iu-14" value="&lt;b style=&quot;font-size: 20px;&quot;&gt;Πολιτιστικός Οργανισμός / Host&lt;/b&gt;" style="swimlane;fontStyle=0;childLayout=stackLayout;horizontal=1;startSize=65;horizontalStack=0;resizeParent=1;resizeParentMax=0;resizeLast=0;collapsible=1;marginBottom=0;whiteSpace=wrap;html=1;verticalAlign=middle;fontSize=20;" parent="WIyWlLk6GJQsqaUBKTNV-1" vertex="1">
          <mxGeometry x="1420" y="-545" width="190" height="210" as="geometry" />
        </mxCell>
        <mxCell id="2JS95DW83qILI5_Ju0iu-15" value="id&lt;br style=&quot;font-size: 20px;&quot;&gt;bank_account&lt;br style=&quot;font-size: 20px;&quot;&gt;tours_list&lt;br style=&quot;font-size: 20px;&quot;&gt;events_list&lt;br&gt;jobs_offered_list" style="text;strokeColor=none;fillColor=none;align=left;verticalAlign=top;spacingLeft=4;spacingRight=4;overflow=hidden;points=[[0,0.5],[1,0.5]];portConstraint=eastwest;rotatable=0;whiteSpace=wrap;html=1;fontSize=20;" parent="2JS95DW83qILI5_Ju0iu-14" vertex="1">
          <mxGeometry y="65" width="190" height="145" as="geometry" />
        </mxCell>
        <mxCell id="2JS95DW83qILI5_Ju0iu-20" value="" style="endArrow=blockThin;html=1;rounded=0;exitX=0.5;exitY=0;exitDx=0;exitDy=0;endFill=0;endSize=6;strokeWidth=2;fontSize=20;" parent="WIyWlLk6GJQsqaUBKTNV-1" source="2JS95DW83qILI5_Ju0iu-12" target="zkfFHV4jXpPFQw0GAbJ--1" edge="1">
          <mxGeometry width="50" height="50" relative="1" as="geometry">
            <mxPoint x="680" y="-450" as="sourcePoint" />
            <mxPoint x="730" y="-500" as="targetPoint" />
          </mxGeometry>
        </mxCell>
        <mxCell id="2JS95DW83qILI5_Ju0iu-25" value="&lt;b style=&quot;font-size: 20px;&quot;&gt;Πληρωμή / Payment&lt;/b&gt;" style="swimlane;fontStyle=0;childLayout=stackLayout;horizontal=1;startSize=60;horizontalStack=0;resizeParent=1;resizeParentMax=0;resizeLast=0;collapsible=1;marginBottom=0;whiteSpace=wrap;html=1;verticalAlign=middle;fontSize=20;" parent="WIyWlLk6GJQsqaUBKTNV-1" vertex="1">
          <mxGeometry x="40" y="-160" width="180" height="230" as="geometry" />
        </mxCell>
        <mxCell id="2JS95DW83qILI5_Ju0iu-26" value="id&lt;br style=&quot;font-size: 20px;&quot;&gt;user_id&lt;br style=&quot;font-size: 20px;&quot;&gt;product_id&lt;br style=&quot;font-size: 20px;&quot;&gt;amount&lt;br style=&quot;font-size: 20px;&quot;&gt;date&lt;br style=&quot;font-size: 20px;&quot;&gt;receipt_path" style="text;strokeColor=none;fillColor=none;align=left;verticalAlign=top;spacingLeft=4;spacingRight=4;overflow=hidden;points=[[0,0.5],[1,0.5]];portConstraint=eastwest;rotatable=0;whiteSpace=wrap;html=1;fontSize=20;" parent="2JS95DW83qILI5_Ju0iu-25" vertex="1">
          <mxGeometry y="60" width="180" height="170" as="geometry" />
        </mxCell>
        <mxCell id="2JS95DW83qILI5_Ju0iu-31" value="&lt;b style=&quot;font-size: 20px;&quot;&gt;Αγγελία Εργασίας / Job Offer&lt;/b&gt;" style="swimlane;fontStyle=0;childLayout=stackLayout;horizontal=1;startSize=50;horizontalStack=0;resizeParent=1;resizeParentMax=0;resizeLast=0;collapsible=1;marginBottom=0;whiteSpace=wrap;html=1;fontSize=20;" parent="WIyWlLk6GJQsqaUBKTNV-1" vertex="1">
          <mxGeometry x="1137.5" y="551" width="205" height="310" as="geometry" />
        </mxCell>
        <mxCell id="2JS95DW83qILI5_Ju0iu-32" value="employer&lt;br&gt;date_opened&lt;br&gt;expires&lt;br&gt;title&lt;br&gt;tags&lt;br&gt;no_employees&lt;br&gt;description&lt;br&gt;salary&lt;br&gt;files_path" style="text;strokeColor=none;fillColor=none;align=left;verticalAlign=top;spacingLeft=4;spacingRight=4;overflow=hidden;points=[[0,0.5],[1,0.5]];portConstraint=eastwest;rotatable=0;whiteSpace=wrap;html=1;fontSize=20;" parent="2JS95DW83qILI5_Ju0iu-31" vertex="1">
          <mxGeometry y="50" width="205" height="260" as="geometry" />
        </mxCell>
        <mxCell id="2JS95DW83qILI5_Ju0iu-35" value="&lt;b style=&quot;font-size: 20px;&quot;&gt;Αίτηση Εργασίας / Job Application&lt;/b&gt;" style="swimlane;fontStyle=0;childLayout=stackLayout;horizontal=1;startSize=50;horizontalStack=0;resizeParent=1;resizeParentMax=0;resizeLast=0;collapsible=1;marginBottom=0;whiteSpace=wrap;html=1;fontSize=20;" parent="WIyWlLk6GJQsqaUBKTNV-1" vertex="1">
          <mxGeometry x="377.5" y="540" width="205" height="210" as="geometry" />
        </mxCell>
        <mxCell id="2JS95DW83qILI5_Ju0iu-36" value="applicant&lt;br&gt;respondingTo&lt;br&gt;date_of_application&lt;br&gt;status&lt;br&gt;files_path&lt;br&gt;" style="text;strokeColor=none;fillColor=none;align=left;verticalAlign=top;spacingLeft=4;spacingRight=4;overflow=hidden;points=[[0,0.5],[1,0.5]];portConstraint=eastwest;rotatable=0;whiteSpace=wrap;html=1;fontSize=20;" parent="2JS95DW83qILI5_Ju0iu-35" vertex="1">
          <mxGeometry y="50" width="205" height="160" as="geometry" />
        </mxCell>
        <mxCell id="2JS95DW83qILI5_Ju0iu-37" value="&lt;b style=&quot;font-size: 20px;&quot;&gt;Ξενάγηση / Tour&amp;nbsp;&lt;/b&gt;" style="swimlane;fontStyle=0;childLayout=stackLayout;horizontal=1;startSize=30;horizontalStack=0;resizeParent=1;resizeParentMax=0;resizeLast=0;collapsible=1;marginBottom=0;whiteSpace=wrap;html=1;fontSize=20;" parent="WIyWlLk6GJQsqaUBKTNV-1" vertex="1">
          <mxGeometry x="570" y="-300" width="205" height="490" as="geometry" />
        </mxCell>
        <mxCell id="2JS95DW83qILI5_Ju0iu-38" value="id&amp;nbsp;&lt;br style=&quot;font-size: 20px;&quot;&gt;title&lt;br style=&quot;font-size: 20px;&quot;&gt;tags&lt;br style=&quot;font-size: 20px;&quot;&gt;virtual&lt;br style=&quot;font-size: 20px;&quot;&gt;offered_by&lt;br style=&quot;font-size: 20px;&quot;&gt;description&lt;br style=&quot;font-size: 20px;&quot;&gt;duration&lt;br style=&quot;font-size: 20px;&quot;&gt;public&lt;br style=&quot;font-size: 20px;&quot;&gt;date_published&lt;br style=&quot;font-size: 20px;&quot;&gt;active_period&lt;br style=&quot;font-size: 20px;&quot;&gt;dates_available&lt;br&gt;groups_per_date&lt;br style=&quot;font-size: 20px;&quot;&gt;spots_available&lt;br&gt;location&lt;br&gt;price&lt;br style=&quot;font-size: 20px;&quot;&gt;rating&lt;br style=&quot;font-size: 20px;&quot;&gt;times_bought&lt;br style=&quot;font-size: 20px;&quot;&gt;times_wishlisted" style="text;strokeColor=none;fillColor=none;align=left;verticalAlign=top;spacingLeft=4;spacingRight=4;overflow=hidden;points=[[0,0.5],[1,0.5]];portConstraint=eastwest;rotatable=0;whiteSpace=wrap;html=1;fontSize=20;" parent="2JS95DW83qILI5_Ju0iu-37" vertex="1">
          <mxGeometry y="30" width="205" height="460" as="geometry" />
        </mxCell>
        <mxCell id="2JS95DW83qILI5_Ju0iu-39" value="&lt;b style=&quot;font-size: 20px;&quot;&gt;Εικονική Ξενάγηση / Virtual Tour&amp;nbsp;&lt;/b&gt;" style="swimlane;fontStyle=0;childLayout=stackLayout;horizontal=1;startSize=60;horizontalStack=0;resizeParent=1;resizeParentMax=0;resizeLast=0;collapsible=1;marginBottom=0;whiteSpace=wrap;html=1;fontSize=20;" parent="WIyWlLk6GJQsqaUBKTNV-1" vertex="1">
          <mxGeometry x="311" y="150" width="205" height="120" as="geometry" />
        </mxCell>
        <mxCell id="2JS95DW83qILI5_Ju0iu-40" value="path&lt;br style=&quot;font-size: 20px;&quot;&gt;" style="text;strokeColor=none;fillColor=none;align=left;verticalAlign=top;spacingLeft=4;spacingRight=4;overflow=hidden;points=[[0,0.5],[1,0.5]];portConstraint=eastwest;rotatable=0;whiteSpace=wrap;html=1;fontSize=20;" parent="2JS95DW83qILI5_Ju0iu-39" vertex="1">
          <mxGeometry y="60" width="205" height="60" as="geometry" />
        </mxCell>
        <mxCell id="2JS95DW83qILI5_Ju0iu-41" value="&lt;font style=&quot;font-size: 20px;&quot;&gt;&lt;b style=&quot;font-size: 20px;&quot;&gt;id = id in DB !!, το θέλουμε στα αντικείμενα ή τσου?&lt;/b&gt;&lt;/font&gt;" style="text;html=1;strokeColor=#b85450;fillColor=#f8cecc;align=center;verticalAlign=middle;whiteSpace=wrap;rounded=0;fontSize=20;" parent="WIyWlLk6GJQsqaUBKTNV-1" vertex="1">
          <mxGeometry x="160" y="-930" width="190" height="116" as="geometry" />
        </mxCell>
        <mxCell id="2JS95DW83qILI5_Ju0iu-44" value="&lt;b style=&quot;font-size: 20px;&quot;&gt;Εκδήλωση / Event&lt;/b&gt;" style="swimlane;fontStyle=0;childLayout=stackLayout;horizontal=1;startSize=30;horizontalStack=0;resizeParent=1;resizeParentMax=0;resizeLast=0;collapsible=1;marginBottom=0;whiteSpace=wrap;html=1;fontSize=20;" parent="WIyWlLk6GJQsqaUBKTNV-1" vertex="1">
          <mxGeometry x="1030" y="120" width="205" height="300" as="geometry" />
        </mxCell>
        <mxCell id="2JS95DW83qILI5_Ju0iu-45" value="id&amp;nbsp;&lt;br style=&quot;font-size: 20px;&quot;&gt;title&lt;br style=&quot;font-size: 20px;&quot;&gt;tags&lt;br style=&quot;font-size: 20px;&quot;&gt;planner&lt;br style=&quot;font-size: 20px;&quot;&gt;publisher&lt;br style=&quot;font-size: 20px;&quot;&gt;description&lt;br style=&quot;font-size: 20px;&quot;&gt;date_of_event&lt;br&gt;location&lt;br style=&quot;font-size: 20px;&quot;&gt;date_uploaded&lt;br style=&quot;font-size: 20px;&quot;&gt;rating" style="text;strokeColor=none;fillColor=none;align=left;verticalAlign=top;spacingLeft=4;spacingRight=4;overflow=hidden;points=[[0,0.5],[1,0.5]];portConstraint=eastwest;rotatable=0;whiteSpace=wrap;html=1;fontSize=20;" parent="2JS95DW83qILI5_Ju0iu-44" vertex="1">
          <mxGeometry y="30" width="205" height="270" as="geometry" />
        </mxCell>
        <mxCell id="2JS95DW83qILI5_Ju0iu-46" value="&lt;b style=&quot;font-size: 20px;&quot;&gt;Quiz&lt;/b&gt;" style="swimlane;fontStyle=0;childLayout=stackLayout;horizontal=1;startSize=30;horizontalStack=0;resizeParent=1;resizeParentMax=0;resizeLast=0;collapsible=1;marginBottom=0;whiteSpace=wrap;html=1;fontSize=20;" parent="WIyWlLk6GJQsqaUBKTNV-1" vertex="1">
          <mxGeometry x="1015" y="-260" width="205" height="240" as="geometry" />
        </mxCell>
        <mxCell id="2JS95DW83qILI5_Ju0iu-47" value="id&amp;nbsp;&lt;br style=&quot;font-size: 20px;&quot;&gt;title&lt;br style=&quot;font-size: 20px;&quot;&gt;on_tour&lt;br style=&quot;font-size: 20px;&quot;&gt;description&lt;br style=&quot;font-size: 20px;&quot;&gt;duration&lt;br&gt;success_point&lt;br style=&quot;font-size: 20px;&quot;&gt;path&lt;br style=&quot;font-size: 20px;&quot;&gt;date_uploaded" style="text;strokeColor=none;fillColor=none;align=left;verticalAlign=top;spacingLeft=4;spacingRight=4;overflow=hidden;points=[[0,0.5],[1,0.5]];portConstraint=eastwest;rotatable=0;whiteSpace=wrap;html=1;fontSize=20;" parent="2JS95DW83qILI5_Ju0iu-46" vertex="1">
          <mxGeometry y="30" width="205" height="210" as="geometry" />
        </mxCell>
        <mxCell id="2JS95DW83qILI5_Ju0iu-48" value="&lt;b style=&quot;font-size: 20px;&quot;&gt;Προσκλήσεις / Invite Links&lt;/b&gt;" style="swimlane;fontStyle=0;childLayout=stackLayout;horizontal=1;startSize=50;horizontalStack=0;resizeParent=1;resizeParentMax=0;resizeLast=0;collapsible=1;marginBottom=0;whiteSpace=wrap;html=1;fontSize=20;" parent="WIyWlLk6GJQsqaUBKTNV-1" vertex="1">
          <mxGeometry x="330" y="-430" width="200" height="220" as="geometry" />
        </mxCell>
        <mxCell id="2JS95DW83qILI5_Ju0iu-49" value="id&lt;br style=&quot;font-size: 20px;&quot;&gt;link&lt;br style=&quot;font-size: 20px;&quot;&gt;owner&lt;br style=&quot;font-size: 20px;&quot;&gt;expires&lt;br style=&quot;font-size: 20px;&quot;&gt;used_by&lt;br style=&quot;font-size: 20px;&quot;&gt;used_on" style="text;strokeColor=none;fillColor=none;align=left;verticalAlign=top;spacingLeft=4;spacingRight=4;overflow=hidden;points=[[0,0.5],[1,0.5]];portConstraint=eastwest;rotatable=0;whiteSpace=wrap;html=1;fontSize=20;" parent="2JS95DW83qILI5_Ju0iu-48" vertex="1">
          <mxGeometry y="50" width="200" height="170" as="geometry" />
        </mxCell>
        <mxCell id="2JS95DW83qILI5_Ju0iu-52" value="&lt;b style=&quot;font-size: 20px;&quot;&gt;Άρθρο / Article&lt;/b&gt;" style="swimlane;fontStyle=0;childLayout=stackLayout;horizontal=1;startSize=30;horizontalStack=0;resizeParent=1;resizeParentMax=0;resizeLast=0;collapsible=1;marginBottom=0;whiteSpace=wrap;html=1;fontSize=20;" parent="WIyWlLk6GJQsqaUBKTNV-1" vertex="1">
          <mxGeometry x="1070" y="-990" width="205" height="260" as="geometry" />
        </mxCell>
        <mxCell id="2JS95DW83qILI5_Ju0iu-53" value="id&amp;nbsp;&lt;br style=&quot;font-size: 20px;&quot;&gt;title&lt;br style=&quot;font-size: 20px;&quot;&gt;tags&lt;br style=&quot;font-size: 20px;&quot;&gt;author&lt;br style=&quot;font-size: 20px;&quot;&gt;public&lt;br style=&quot;font-size: 20px;&quot;&gt;date_published&lt;br style=&quot;font-size: 20px;&quot;&gt;path&lt;br&gt;likes&lt;br&gt;dislikes" style="text;strokeColor=none;fillColor=none;align=left;verticalAlign=top;spacingLeft=4;spacingRight=4;overflow=hidden;points=[[0,0.5],[1,0.5]];portConstraint=eastwest;rotatable=0;whiteSpace=wrap;html=1;fontSize=20;" parent="2JS95DW83qILI5_Ju0iu-52" vertex="1">
          <mxGeometry y="30" width="205" height="230" as="geometry" />
        </mxCell>
        <mxCell id="2JS95DW83qILI5_Ju0iu-54" value="&lt;b style=&quot;font-size: 20px;&quot;&gt;Aξιολόγηση / Review&lt;/b&gt;" style="swimlane;fontStyle=0;childLayout=stackLayout;horizontal=1;startSize=30;horizontalStack=0;resizeParent=1;resizeParentMax=0;resizeLast=0;collapsible=1;marginBottom=0;whiteSpace=wrap;html=1;fontSize=20;" parent="WIyWlLk6GJQsqaUBKTNV-1" vertex="1">
          <mxGeometry x="400" y="-900" width="205" height="190" as="geometry" />
        </mxCell>
        <mxCell id="2JS95DW83qILI5_Ju0iu-55" value="id&amp;nbsp;&lt;br style=&quot;font-size: 20px;&quot;&gt;author&lt;br style=&quot;font-size: 20px;&quot;&gt;stars&lt;br style=&quot;font-size: 20px;&quot;&gt;comment&lt;br style=&quot;font-size: 20px;&quot;&gt;date_written" style="text;strokeColor=none;fillColor=none;align=left;verticalAlign=top;spacingLeft=4;spacingRight=4;overflow=hidden;points=[[0,0.5],[1,0.5]];portConstraint=eastwest;rotatable=0;whiteSpace=wrap;html=1;fontSize=20;" parent="2JS95DW83qILI5_Ju0iu-54" vertex="1">
          <mxGeometry y="30" width="205" height="160" as="geometry" />
        </mxCell>
        <mxCell id="2JS95DW83qILI5_Ju0iu-66" value="" style="endArrow=none;html=1;rounded=0;exitX=0.557;exitY=-0.009;exitDx=0;exitDy=0;strokeColor=#67AB9F;strokeWidth=4;entryX=0.174;entryY=1.024;entryDx=0;entryDy=0;entryPerimeter=0;fontSize=20;exitPerimeter=0;" parent="WIyWlLk6GJQsqaUBKTNV-1" source="2JS95DW83qILI5_Ju0iu-25" target="2JS95DW83qILI5_Ju0iu-9" edge="1">
          <mxGeometry width="50" height="50" relative="1" as="geometry">
            <mxPoint x="130" y="-360" as="sourcePoint" />
            <mxPoint x="180" y="-410" as="targetPoint" />
            <Array as="points" />
          </mxGeometry>
        </mxCell>
        <mxCell id="2JS95DW83qILI5_Ju0iu-67" value="" style="endArrow=none;html=1;rounded=0;exitX=0.5;exitY=0;exitDx=0;exitDy=0;startArrow=none;startFill=0;strokeWidth=4;strokeColor=#99004D;fontSize=20;" parent="WIyWlLk6GJQsqaUBKTNV-1" source="2JS95DW83qILI5_Ju0iu-37" target="2JS95DW83qILI5_Ju0iu-13" edge="1">
          <mxGeometry width="50" height="50" relative="1" as="geometry">
            <mxPoint x="670" y="-250" as="sourcePoint" />
            <mxPoint x="720" y="-300" as="targetPoint" />
            <Array as="points">
              <mxPoint x="673" y="-340" />
              <mxPoint x="830" y="-340" />
            </Array>
          </mxGeometry>
        </mxCell>
        <mxCell id="2JS95DW83qILI5_Ju0iu-69" value="" style="endArrow=none;html=1;rounded=0;exitX=-0.037;exitY=0.54;exitDx=0;exitDy=0;startArrow=block;startFill=0;exitPerimeter=0;entryX=0.5;entryY=0;entryDx=0;entryDy=0;fontSize=20;" parent="WIyWlLk6GJQsqaUBKTNV-1" source="2JS95DW83qILI5_Ju0iu-38" target="2JS95DW83qILI5_Ju0iu-39" edge="1">
          <mxGeometry width="50" height="50" relative="1" as="geometry">
            <mxPoint x="870" y="-230" as="sourcePoint" />
            <mxPoint x="750" y="50" as="targetPoint" />
          </mxGeometry>
        </mxCell>
        <mxCell id="2JS95DW83qILI5_Ju0iu-70" value="" style="endArrow=none;html=1;rounded=0;entryX=0.479;entryY=1.005;entryDx=0;entryDy=0;entryPerimeter=0;strokeColor=#7EA6E0;strokeWidth=4;fontSize=20;exitX=0.997;exitY=0.028;exitDx=0;exitDy=0;exitPerimeter=0;" parent="WIyWlLk6GJQsqaUBKTNV-1" source="2JS95DW83qILI5_Ju0iu-37" target="2JS95DW83qILI5_Ju0iu-15" edge="1">
          <mxGeometry width="50" height="50" relative="1" as="geometry">
            <mxPoint x="780" y="-280" as="sourcePoint" />
            <mxPoint x="930" y="-340" as="targetPoint" />
            <Array as="points">
              <mxPoint x="1511" y="-286" />
            </Array>
          </mxGeometry>
        </mxCell>
        <mxCell id="2JS95DW83qILI5_Ju0iu-71" value="" style="endArrow=diamond;html=1;rounded=0;endFill=1;fontSize=20;" parent="WIyWlLk6GJQsqaUBKTNV-1" edge="1">
          <mxGeometry width="50" height="50" relative="1" as="geometry">
            <mxPoint x="1010" y="-150" as="sourcePoint" />
            <mxPoint x="770" y="-150" as="targetPoint" />
          </mxGeometry>
        </mxCell>
        <mxCell id="2JS95DW83qILI5_Ju0iu-72" value="" style="endArrow=none;html=1;rounded=0;exitX=0.25;exitY=0;exitDx=0;exitDy=0;strokeWidth=4;strokeColor=#99004D;fontSize=20;" parent="WIyWlLk6GJQsqaUBKTNV-1" source="2JS95DW83qILI5_Ju0iu-46" edge="1">
          <mxGeometry width="50" height="50" relative="1" as="geometry">
            <mxPoint x="780" y="-360" as="sourcePoint" />
            <mxPoint x="830" y="-410" as="targetPoint" />
            <Array as="points">
              <mxPoint x="1066" y="-340" />
              <mxPoint x="830" y="-340" />
            </Array>
          </mxGeometry>
        </mxCell>
        <mxCell id="2JS95DW83qILI5_Ju0iu-73" value="" style="endArrow=none;html=1;rounded=0;entryX=0.487;entryY=1.009;entryDx=0;entryDy=0;entryPerimeter=0;strokeColor=#7EA6E0;strokeWidth=4;fontSize=20;" parent="WIyWlLk6GJQsqaUBKTNV-1" target="2JS95DW83qILI5_Ju0iu-15" edge="1">
          <mxGeometry width="50" height="50" relative="1" as="geometry">
            <mxPoint x="1220" y="-140" as="sourcePoint" />
            <mxPoint x="1310" y="-410" as="targetPoint" />
            <Array as="points">
              <mxPoint x="1510" y="-140" />
              <mxPoint x="1510" y="-280" />
            </Array>
          </mxGeometry>
        </mxCell>
        <mxCell id="2JS95DW83qILI5_Ju0iu-119" value="&lt;font style=&quot;font-size: 22px;&quot;&gt;&lt;b&gt;δημιουργεί&lt;/b&gt;&lt;/font&gt;" style="edgeLabel;html=1;align=center;verticalAlign=middle;resizable=0;points=[];" parent="2JS95DW83qILI5_Ju0iu-73" vertex="1" connectable="0">
          <mxGeometry x="0.104" relative="1" as="geometry">
            <mxPoint x="-117" as="offset" />
          </mxGeometry>
        </mxCell>
        <mxCell id="2JS95DW83qILI5_Ju0iu-74" value="" style="endArrow=none;html=1;rounded=0;entryX=0.008;entryY=0.086;entryDx=0;entryDy=0;startArrow=diamondThin;startFill=1;strokeWidth=4;strokeColor=#67AB9F;exitX=1.008;exitY=0.032;exitDx=0;exitDy=0;exitPerimeter=0;entryPerimeter=0;fontSize=20;" parent="WIyWlLk6GJQsqaUBKTNV-1" source="2JS95DW83qILI5_Ju0iu-9" target="2JS95DW83qILI5_Ju0iu-54" edge="1">
          <mxGeometry width="50" height="50" relative="1" as="geometry">
            <mxPoint x="300" y="-410" as="sourcePoint" />
            <mxPoint x="350" y="-460" as="targetPoint" />
            <Array as="points">
              <mxPoint x="370" y="-495" />
              <mxPoint x="370" y="-884" />
            </Array>
          </mxGeometry>
        </mxCell>
        <mxCell id="2JS95DW83qILI5_Ju0iu-108" value="&lt;font style=&quot;font-size: 20px;&quot;&gt;δίνει&lt;/font&gt;" style="edgeLabel;html=1;align=center;verticalAlign=middle;resizable=0;points=[];fontStyle=1;fontSize=20;" parent="2JS95DW83qILI5_Ju0iu-74" vertex="1" connectable="0">
          <mxGeometry x="-0.0172" y="1" relative="1" as="geometry">
            <mxPoint as="offset" />
          </mxGeometry>
        </mxCell>
        <mxCell id="2JS95DW83qILI5_Ju0iu-75" value="" style="endArrow=none;html=1;rounded=0;exitX=1.005;exitY=0.357;exitDx=0;exitDy=0;exitPerimeter=0;entryX=-0.013;entryY=0.166;entryDx=0;entryDy=0;entryPerimeter=0;strokeWidth=4;strokeColor=#99004D;fontSize=20;" parent="WIyWlLk6GJQsqaUBKTNV-1" source="2JS95DW83qILI5_Ju0iu-13" target="2JS95DW83qILI5_Ju0iu-53" edge="1">
          <mxGeometry width="50" height="50" relative="1" as="geometry">
            <mxPoint x="1080" y="-450" as="sourcePoint" />
            <mxPoint x="1080" y="-474" as="targetPoint" />
            <Array as="points">
              <mxPoint x="970" y="-471" />
              <mxPoint x="970" y="-920" />
            </Array>
          </mxGeometry>
        </mxCell>
        <mxCell id="2JS95DW83qILI5_Ju0iu-76" value="" style="endArrow=none;html=1;rounded=0;strokeColor=#7EA6E0;strokeWidth=4;fontSize=20;entryX=0.976;entryY=0.391;entryDx=0;entryDy=0;entryPerimeter=0;" parent="WIyWlLk6GJQsqaUBKTNV-1" target="2JS95DW83qILI5_Ju0iu-53" edge="1">
          <mxGeometry width="50" height="50" relative="1" as="geometry">
            <mxPoint x="1420" y="-460" as="sourcePoint" />
            <mxPoint x="1280" y="-870" as="targetPoint" />
            <Array as="points">
              <mxPoint x="1330" y="-460" />
              <mxPoint x="1330" y="-870" />
            </Array>
          </mxGeometry>
        </mxCell>
        <mxCell id="2JS95DW83qILI5_Ju0iu-77" value="" style="endArrow=none;html=1;rounded=0;entryX=0.48;entryY=1.043;entryDx=0;entryDy=0;entryPerimeter=0;exitX=1.024;exitY=0.259;exitDx=0;exitDy=0;strokeColor=#7EA6E0;strokeWidth=4;fontSize=20;exitPerimeter=0;" parent="WIyWlLk6GJQsqaUBKTNV-1" source="2JS95DW83qILI5_Ju0iu-45" target="2JS95DW83qILI5_Ju0iu-15" edge="1">
          <mxGeometry width="50" height="50" relative="1" as="geometry">
            <mxPoint x="1080" y="-200" as="sourcePoint" />
            <mxPoint x="1130" y="-250" as="targetPoint" />
            <Array as="points">
              <mxPoint x="1511" y="220" />
            </Array>
          </mxGeometry>
        </mxCell>
        <mxCell id="2JS95DW83qILI5_Ju0iu-78" value="" style="endArrow=none;html=1;rounded=0;entryX=0.493;entryY=1.009;entryDx=0;entryDy=0;entryPerimeter=0;strokeWidth=4;strokeColor=#7EA6E0;fontSize=20;exitX=1.006;exitY=0.38;exitDx=0;exitDy=0;exitPerimeter=0;" parent="WIyWlLk6GJQsqaUBKTNV-1" source="2JS95DW83qILI5_Ju0iu-32" target="2JS95DW83qILI5_Ju0iu-15" edge="1">
          <mxGeometry width="50" height="50" relative="1" as="geometry">
            <mxPoint x="1360" y="370" as="sourcePoint" />
            <mxPoint x="1130" as="targetPoint" />
            <Array as="points">
              <mxPoint x="1510" y="701" />
            </Array>
          </mxGeometry>
        </mxCell>
        <mxCell id="2JS95DW83qILI5_Ju0iu-84" style="edgeStyle=orthogonalEdgeStyle;rounded=0;orthogonalLoop=1;jettySize=auto;html=1;exitX=1;exitY=0.5;exitDx=0;exitDy=0;endArrow=diamondThin;endFill=1;fontSize=20;" parent="WIyWlLk6GJQsqaUBKTNV-1" source="2JS95DW83qILI5_Ju0iu-36" edge="1">
          <mxGeometry relative="1" as="geometry">
            <Array as="points">
              <mxPoint x="582.5" y="630" />
            </Array>
            <mxPoint x="1137.5" y="630" as="targetPoint" />
          </mxGeometry>
        </mxCell>
        <mxCell id="2JS95DW83qILI5_Ju0iu-87" value="" style="endArrow=none;html=1;rounded=0;entryX=0.803;entryY=1.009;entryDx=0;entryDy=0;entryPerimeter=0;exitX=0;exitY=0.338;exitDx=0;exitDy=0;strokeWidth=4;strokeColor=#67AB9F;fontSize=20;exitPerimeter=0;" parent="WIyWlLk6GJQsqaUBKTNV-1" source="2JS95DW83qILI5_Ju0iu-36" target="2JS95DW83qILI5_Ju0iu-9" edge="1">
          <mxGeometry width="50" height="50" relative="1" as="geometry">
            <mxPoint x="500" y="-50" as="sourcePoint" />
            <mxPoint x="550" y="-100" as="targetPoint" />
            <Array as="points">
              <mxPoint x="263" y="644" />
            </Array>
          </mxGeometry>
        </mxCell>
        <mxCell id="2JS95DW83qILI5_Ju0iu-88" style="edgeStyle=orthogonalEdgeStyle;rounded=0;orthogonalLoop=1;jettySize=auto;html=1;exitX=0;exitY=0.5;exitDx=0;exitDy=0;entryX=1;entryY=0.5;entryDx=0;entryDy=0;endArrow=none;endFill=0;strokeWidth=4;strokeColor=#99004D;fontSize=20;" parent="WIyWlLk6GJQsqaUBKTNV-1" source="2JS95DW83qILI5_Ju0iu-13" target="2JS95DW83qILI5_Ju0iu-55" edge="1">
          <mxGeometry relative="1" as="geometry" />
        </mxCell>
        <mxCell id="2JS95DW83qILI5_Ju0iu-89" value="" style="endArrow=none;html=1;rounded=0;strokeWidth=4;strokeColor=#67AB9F;fontSize=20;" parent="WIyWlLk6GJQsqaUBKTNV-1" edge="1">
          <mxGeometry width="50" height="50" relative="1" as="geometry">
            <mxPoint x="260" y="-130" as="sourcePoint" />
            <mxPoint x="570" y="-130" as="targetPoint" />
          </mxGeometry>
        </mxCell>
        <mxCell id="2JS95DW83qILI5_Ju0iu-91" value="" style="endArrow=none;html=1;rounded=0;strokeColor=#67AB9F;strokeWidth=4;fontSize=20;entryX=-0.022;entryY=0.744;entryDx=0;entryDy=0;entryPerimeter=0;" parent="WIyWlLk6GJQsqaUBKTNV-1" target="2JS95DW83qILI5_Ju0iu-45" edge="1">
          <mxGeometry width="50" height="50" relative="1" as="geometry">
            <mxPoint x="260" y="351" as="sourcePoint" />
            <mxPoint x="1010" y="210" as="targetPoint" />
            <Array as="points" />
          </mxGeometry>
        </mxCell>
        <mxCell id="2JS95DW83qILI5_Ju0iu-94" value="" style="endArrow=none;html=1;rounded=0;entryX=0;entryY=0.127;entryDx=0;entryDy=0;entryPerimeter=0;strokeColor=#67AB9F;strokeWidth=4;fontSize=20;" parent="WIyWlLk6GJQsqaUBKTNV-1" target="2JS95DW83qILI5_Ju0iu-52" edge="1">
          <mxGeometry width="50" height="50" relative="1" as="geometry">
            <mxPoint x="140" y="-550" as="sourcePoint" />
            <mxPoint x="190" y="-600" as="targetPoint" />
            <Array as="points">
              <mxPoint x="140" y="-963" />
            </Array>
          </mxGeometry>
        </mxCell>
        <mxCell id="2JS95DW83qILI5_Ju0iu-95" style="edgeStyle=orthogonalEdgeStyle;rounded=0;orthogonalLoop=1;jettySize=auto;html=1;endArrow=none;endFill=0;startArrow=diamond;startFill=1;strokeColor=#67AB9F;strokeWidth=4;fontSize=20;" parent="WIyWlLk6GJQsqaUBKTNV-1" edge="1">
          <mxGeometry relative="1" as="geometry">
            <mxPoint x="300" y="-450" as="sourcePoint" />
            <mxPoint x="450" y="-430" as="targetPoint" />
            <Array as="points">
              <mxPoint x="300" y="-450" />
              <mxPoint x="450" y="-450" />
              <mxPoint x="450" y="-430" />
            </Array>
          </mxGeometry>
        </mxCell>
        <mxCell id="2JS95DW83qILI5_Ju0iu-100" value="&lt;b style=&quot;font-size: 20px;&quot;&gt;DB communicator&lt;/b&gt;" style="swimlane;fontStyle=0;childLayout=stackLayout;horizontal=1;startSize=30;horizontalStack=0;resizeParent=1;resizeParentMax=0;resizeLast=0;collapsible=1;marginBottom=0;whiteSpace=wrap;html=1;fontSize=20;" parent="WIyWlLk6GJQsqaUBKTNV-1" vertex="1">
          <mxGeometry x="95" y="780" width="205" height="130" as="geometry" />
        </mxCell>
        <mxCell id="2JS95DW83qILI5_Ju0iu-101" value="dbname&lt;br style=&quot;font-size: 20px;&quot;&gt;host&lt;br style=&quot;font-size: 20px;&quot;&gt;password" style="text;strokeColor=none;fillColor=none;align=left;verticalAlign=top;spacingLeft=4;spacingRight=4;overflow=hidden;points=[[0,0.5],[1,0.5]];portConstraint=eastwest;rotatable=0;whiteSpace=wrap;html=1;fontSize=20;" parent="2JS95DW83qILI5_Ju0iu-100" vertex="1">
          <mxGeometry y="30" width="205" height="100" as="geometry" />
        </mxCell>
        <mxCell id="2JS95DW83qILI5_Ju0iu-102" value="&lt;b style=&quot;font-size: 20px;&quot;&gt;GUI&lt;/b&gt;" style="swimlane;fontStyle=0;childLayout=stackLayout;horizontal=1;startSize=30;horizontalStack=0;resizeParent=1;resizeParentMax=0;resizeLast=0;collapsible=1;marginBottom=0;whiteSpace=wrap;html=1;fontSize=20;" parent="WIyWlLk6GJQsqaUBKTNV-1" vertex="1">
          <mxGeometry x="720" y="780" width="205" height="130" as="geometry" />
        </mxCell>
        <mxCell id="2JS95DW83qILI5_Ju0iu-104" value="Menu Handler" style="swimlane;fontStyle=1;align=center;verticalAlign=top;childLayout=stackLayout;horizontal=1;startSize=40;horizontalStack=0;resizeParent=1;resizeLast=0;collapsible=1;marginBottom=0;rounded=0;shadow=0;strokeWidth=1;fontSize=20;" parent="WIyWlLk6GJQsqaUBKTNV-1" vertex="1">
          <mxGeometry x="750" y="-1120" width="160" height="124" as="geometry">
            <mxRectangle x="230" y="140" width="160" height="26" as="alternateBounds" />
          </mxGeometry>
        </mxCell>
        <mxCell id="2JS95DW83qILI5_Ju0iu-105" value="current_user&#xa;current_type" style="text;align=left;verticalAlign=top;spacingLeft=4;spacingRight=4;overflow=hidden;rotatable=0;points=[[0,0.5],[1,0.5]];portConstraint=eastwest;fontSize=20;" parent="2JS95DW83qILI5_Ju0iu-104" vertex="1">
          <mxGeometry y="40" width="160" height="84" as="geometry" />
        </mxCell>
        <mxCell id="2JS95DW83qILI5_Ju0iu-107" value="" style="endArrow=none;html=1;rounded=0;exitX=0.5;exitY=0;exitDx=0;exitDy=0;fontSize=20;" parent="WIyWlLk6GJQsqaUBKTNV-1" source="zkfFHV4jXpPFQw0GAbJ--0" edge="1">
          <mxGeometry width="50" height="50" relative="1" as="geometry">
            <mxPoint x="780" y="-1000" as="sourcePoint" />
            <mxPoint x="830" y="-1000" as="targetPoint" />
          </mxGeometry>
        </mxCell>
        <mxCell id="2JS95DW83qILI5_Ju0iu-109" value="&lt;font style=&quot;font-size: 20px;&quot;&gt;διαβάζει&lt;/font&gt;" style="edgeLabel;html=1;align=center;verticalAlign=middle;resizable=0;points=[];fontStyle=1;fontSize=20;" parent="WIyWlLk6GJQsqaUBKTNV-1" vertex="1" connectable="0">
          <mxGeometry x="459.9999999999998" y="-670.0028456831819" as="geometry">
            <mxPoint x="-34" y="-297" as="offset" />
          </mxGeometry>
        </mxCell>
        <mxCell id="2JS95DW83qILI5_Ju0iu-111" value="" style="endArrow=none;html=1;rounded=0;strokeColor=#67AB9F;strokeWidth=4;" parent="WIyWlLk6GJQsqaUBKTNV-1" edge="1">
          <mxGeometry width="50" height="50" relative="1" as="geometry">
            <mxPoint x="830" y="350" as="sourcePoint" />
            <mxPoint x="1010" y="-106" as="targetPoint" />
            <Array as="points">
              <mxPoint x="830" y="-106" />
            </Array>
          </mxGeometry>
        </mxCell>
        <mxCell id="2JS95DW83qILI5_Ju0iu-90" value="" style="endArrow=none;html=1;rounded=0;strokeColor=#99004D;strokeWidth=4;fontSize=20;exitX=-0.013;exitY=0.252;exitDx=0;exitDy=0;exitPerimeter=0;" parent="WIyWlLk6GJQsqaUBKTNV-1" source="2JS95DW83qILI5_Ju0iu-45" edge="1">
          <mxGeometry width="50" height="50" relative="1" as="geometry">
            <mxPoint x="1010" y="80" as="sourcePoint" />
            <mxPoint x="870" y="-340" as="targetPoint" />
            <Array as="points">
              <mxPoint x="870" y="220" />
              <mxPoint x="870" y="-130" />
            </Array>
          </mxGeometry>
        </mxCell>
        <mxCell id="2JS95DW83qILI5_Ju0iu-113" value="&lt;font style=&quot;font-size: 20px;&quot;&gt;λαμβάνει&lt;/font&gt;" style="edgeLabel;html=1;align=center;verticalAlign=middle;resizable=0;points=[];fontStyle=1;fontSize=20;" parent="WIyWlLk6GJQsqaUBKTNV-1" vertex="1" connectable="0">
          <mxGeometry x="400" y="-435.00400887643127" as="geometry">
            <mxPoint x="-14" y="-18" as="offset" />
          </mxGeometry>
        </mxCell>
        <mxCell id="2JS95DW83qILI5_Ju0iu-114" value="&lt;font style=&quot;font-size: 20px;&quot;&gt;κάνει&lt;/font&gt;" style="edgeLabel;html=1;align=center;verticalAlign=middle;resizable=0;points=[];fontStyle=1;fontSize=20;" parent="WIyWlLk6GJQsqaUBKTNV-1" vertex="1" connectable="0">
          <mxGeometry x="138" y="-280.00400887643127" as="geometry">
            <mxPoint x="6" y="2" as="offset" />
          </mxGeometry>
        </mxCell>
        <mxCell id="2JS95DW83qILI5_Ju0iu-115" value="&lt;font style=&quot;font-size: 20px;&quot;&gt;διαβάζει&lt;/font&gt;" style="edgeLabel;html=1;align=center;verticalAlign=middle;resizable=0;points=[];fontStyle=1;fontSize=20;" parent="WIyWlLk6GJQsqaUBKTNV-1" vertex="1" connectable="0">
          <mxGeometry x="769.9999999999998" y="-584.0028456831819" as="geometry">
            <mxPoint x="-34" y="-297" as="offset" />
          </mxGeometry>
        </mxCell>
        <mxCell id="2JS95DW83qILI5_Ju0iu-116" value="&lt;font style=&quot;font-size: 20px;&quot;&gt;διαβάζει&lt;/font&gt;" style="edgeLabel;html=1;align=center;verticalAlign=middle;resizable=0;points=[];fontStyle=1;fontSize=20;" parent="WIyWlLk6GJQsqaUBKTNV-1" vertex="1" connectable="0">
          <mxGeometry x="699.9999999999998" y="-400.0028456831819" as="geometry">
            <mxPoint x="-34" y="-297" as="offset" />
          </mxGeometry>
        </mxCell>
        <mxCell id="2JS95DW83qILI5_Ju0iu-117" value="&lt;font style=&quot;font-size: 20px;&quot;&gt;διαβάζει/&lt;br&gt;γράφει&lt;br&gt;&lt;/font&gt;" style="edgeLabel;html=1;align=center;verticalAlign=middle;resizable=0;points=[];fontStyle=1;fontSize=20;" parent="WIyWlLk6GJQsqaUBKTNV-1" vertex="1" connectable="0">
          <mxGeometry x="999.9999999999998" y="-410.0028456831819" as="geometry">
            <mxPoint x="-34" y="-297" as="offset" />
          </mxGeometry>
        </mxCell>
        <mxCell id="2JS95DW83qILI5_Ju0iu-118" value="&lt;font style=&quot;font-size: 20px;&quot;&gt;διαβάζει/&lt;br&gt;γράφει&lt;br&gt;&lt;/font&gt;" style="edgeLabel;html=1;align=center;verticalAlign=middle;resizable=0;points=[];fontStyle=1;fontSize=20;" parent="WIyWlLk6GJQsqaUBKTNV-1" vertex="1" connectable="0">
          <mxGeometry x="1369.9999999999998" y="-430.0028456831819" as="geometry">
            <mxPoint x="-34" y="-297" as="offset" />
          </mxGeometry>
        </mxCell>
        <mxCell id="2JS95DW83qILI5_Ju0iu-120" value="&lt;span style=&quot;font-size: 22px;&quot;&gt;&lt;b&gt;οργανώνει&lt;/b&gt;&lt;/span&gt;" style="edgeLabel;html=1;align=center;verticalAlign=middle;resizable=0;points=[];" parent="WIyWlLk6GJQsqaUBKTNV-1" vertex="1" connectable="0">
          <mxGeometry x="1389.9998661324591" y="220" as="geometry">
            <mxPoint x="-9" y="-3" as="offset" />
          </mxGeometry>
        </mxCell>
        <mxCell id="2JS95DW83qILI5_Ju0iu-121" value="&lt;font style=&quot;font-size: 22px;&quot;&gt;&lt;b&gt;ανεβάζει&lt;/b&gt;&lt;/font&gt;" style="edgeLabel;html=1;align=center;verticalAlign=middle;resizable=0;points=[];" parent="WIyWlLk6GJQsqaUBKTNV-1" vertex="1" connectable="0">
          <mxGeometry x="1439.9998661324591" y="690" as="geometry" />
        </mxCell>
        <mxCell id="2JS95DW83qILI5_Ju0iu-122" value="&lt;font style=&quot;font-size: 22px;&quot;&gt;&lt;b&gt;δημιουργεί&lt;/b&gt;&lt;/font&gt;" style="edgeLabel;html=1;align=center;verticalAlign=middle;resizable=0;points=[];" parent="WIyWlLk6GJQsqaUBKTNV-1" vertex="1" connectable="0">
          <mxGeometry x="999.9998661324591" y="-340" as="geometry" />
        </mxCell>
        <mxCell id="2JS95DW83qILI5_Ju0iu-123" value="&lt;font style=&quot;font-size: 22px;&quot;&gt;&lt;b&gt;δημιουργεί&lt;/b&gt;&lt;/font&gt;" style="edgeLabel;html=1;align=center;verticalAlign=middle;resizable=0;points=[];" parent="WIyWlLk6GJQsqaUBKTNV-1" vertex="1" connectable="0">
          <mxGeometry x="672.4998661324591" y="-340" as="geometry" />
        </mxCell>
        <mxCell id="2JS95DW83qILI5_Ju0iu-124" value="&lt;span style=&quot;font-size: 22px;&quot;&gt;&lt;b&gt;οργανώνει/&lt;br&gt;δημοσιεύει&lt;br&gt;&lt;/b&gt;&lt;/span&gt;" style="edgeLabel;html=1;align=center;verticalAlign=middle;resizable=0;points=[];" parent="WIyWlLk6GJQsqaUBKTNV-1" vertex="1" connectable="0">
          <mxGeometry x="959.9998661324591" y="220" as="geometry">
            <mxPoint x="-9" y="-3" as="offset" />
          </mxGeometry>
        </mxCell>
        <mxCell id="2JS95DW83qILI5_Ju0iu-125" value="&lt;font style=&quot;font-size: 22px;&quot;&gt;&lt;b&gt;συμμετέχει σε&lt;/b&gt;&lt;/font&gt;" style="edgeLabel;html=1;align=center;verticalAlign=middle;resizable=0;points=[];" parent="WIyWlLk6GJQsqaUBKTNV-1" vertex="1" connectable="0">
          <mxGeometry x="419.99986613245915" y="-130" as="geometry" />
        </mxCell>
        <mxCell id="2JS95DW83qILI5_Ju0iu-126" value="&lt;font style=&quot;font-size: 22px;&quot;&gt;&lt;b&gt;συμμετέχει σε&lt;/b&gt;&lt;/font&gt;" style="edgeLabel;html=1;align=center;verticalAlign=middle;resizable=0;points=[];" parent="WIyWlLk6GJQsqaUBKTNV-1" vertex="1" connectable="0">
          <mxGeometry x="639.9998661324591" y="350" as="geometry" />
        </mxCell>
        <mxCell id="2JS95DW83qILI5_Ju0iu-127" value="&lt;span style=&quot;font-size: 22px;&quot;&gt;&lt;b&gt;συμπληρώνει&lt;/b&gt;&lt;/span&gt;" style="edgeLabel;html=1;align=center;verticalAlign=middle;resizable=0;points=[];" parent="WIyWlLk6GJQsqaUBKTNV-1" vertex="1" connectable="0">
          <mxGeometry x="257.49986613245915" y="590" as="geometry" />
        </mxCell>
        <mxCell id="Nq94yrtiY547T0VePZfC-3" value="&lt;font style=&quot;font-size: 22px;&quot;&gt;&lt;b&gt;δημιουργεί&lt;/b&gt;&lt;/font&gt;" style="edgeLabel;html=1;align=center;verticalAlign=middle;resizable=0;points=[];" parent="WIyWlLk6GJQsqaUBKTNV-1" vertex="1" connectable="0">
          <mxGeometry x="1399.6666666666665" y="-290" as="geometry" />
        </mxCell>
        <mxCell id="kp8T2773RT96hPyNPX0w-0" value="" style="endArrow=none;html=1;rounded=0;strokeColor=#99004D;strokeWidth=4;fontSize=20;exitX=0.5;exitY=0;exitDx=0;exitDy=0;" edge="1" parent="WIyWlLk6GJQsqaUBKTNV-1" source="2JS95DW83qILI5_Ju0iu-35">
          <mxGeometry width="50" height="50" relative="1" as="geometry">
            <mxPoint x="1027" y="738" as="sourcePoint" />
            <mxPoint x="870" y="210" as="targetPoint" />
            <Array as="points">
              <mxPoint x="480" y="460" />
              <mxPoint x="870" y="460" />
            </Array>
          </mxGeometry>
        </mxCell>
        <mxCell id="kp8T2773RT96hPyNPX0w-1" value="&lt;span style=&quot;font-size: 22px;&quot;&gt;&lt;b&gt;συμπληρώνει&lt;/b&gt;&lt;/span&gt;" style="edgeLabel;html=1;align=center;verticalAlign=middle;resizable=0;points=[];" vertex="1" connectable="0" parent="WIyWlLk6GJQsqaUBKTNV-1">
          <mxGeometry x="699.9998661324591" y="457" as="geometry" />
        </mxCell>
      </root>
    </mxGraphModel>
  </diagram>
</mxfile>
